<?xml version="1.0" encoding="utf-8"?>
<!-- Generator: Adobe Illustrator 26.2.1, SVG Export Plug-In . SVG Version: 6.00 Build 0)  -->
<svg version="1.1" id="Layer_1" xmlns="http://www.w3.org/2000/svg" xmlns:xlink="http://www.w3.org/1999/xlink" x="0px" y="0px"
	 viewBox="0 0 800 800" style="enable-background:new 0 0 800 800;" xml:space="preserve">
<style type="text/css">
	.st0{fill:none;}
	.st1{fill:#1275B1;}
</style>
<path class="st0" d="M165.2,325.4c4.5,6.1,8.7,12.5,12.5,19.1c0.1-0.1,0.3-0.2,0.4-0.4c4.5-6.4,8.5-14.5,17.7-17.8
	C185.5,325.4,174.3,324.9,165.2,325.4z"/>
<path class="st0" d="M48.6,360.3c6.6-14.2,16.2-26.8,28.2-37c5-0.8,10.2-1.4,15.3-1.9c-1.2-10.2-2.1-20.7-2-24.4
	c-14.7,8.1-30.9,24.3-42.7,40.9h0C47,342.8,47.5,350.8,48.6,360.3z"/>
<path class="st0" d="M67.8,382.5c-6.5,0.6-11.1,5.3-13.4,12c1.7,6.6,3.5,13.1,5.3,17.6c9.9-7.5,32.3-21.3,45-26.9
	c-3.4-12.3-5.9-21.1-8-31.8c-0.2,0.2-0.3,0.4-0.5,0.7C88.5,364.9,79,381.4,67.8,382.5z"/>
<path class="st0" d="M39.6,350.9c-5.1,11.2-8.2,17.9-9.7,31c3.6-6.4,10.7-14.4,10.7-14.4C40.2,360.5,39.6,350.9,39.6,350.9z"/>
<path class="st0" d="M63.7,421.5c1.3,3.6,2.6,7.3,4,10.9c1.4-0.4,2.7-0.8,4.2-1.2c10.1-2.9,10.5-3.4,19.5-1.6
	c9.9,2,19.7,4.3,29.5,7.1c0.7-0.3,1.3-0.7,2-1c-4.5-9.6-10.9-27.7-15.5-41.2C89.8,403.1,76.7,411.5,63.7,421.5z"/>
<path class="st0" d="M182.5,419.1c-2.2-3.2-4.8-6-8.7-7.6c-8.5-3.6-19.9,2-26.7-8c-2.2-3.1-3-12.8-1.2-16.1c1.2-2.3,1.6-5.2,1.6-8.2
	c-11.4,2.9-22.1,6.8-32.2,11.6l0,0c0,0,7.2,23.2,15.6,40.9C147.1,424.4,164.6,420.3,182.5,419.1z"/>
<path class="st0" d="M135.2,459.5c-0.8,5.1-2.8,10.2-5.5,17.1c-1.9,4.9-2.1,14.2-2.7,23.6c8.1-6.1,16.8-11.6,24.2-15.2
	C146.5,477.6,140.4,468.2,135.2,459.5z"/>
<path class="st0" d="M194,436.8c-2.6-2.7-4.5-5.7-6.2-8.6c-21,1.3-39.2,6.6-52.3,13.1c6.5,14,19.3,32.5,24.1,40.2
	c8.4-3.1,17.3-5.5,24.3-6.5c2.8-0.4,6-0.8,9.2-1.2v0h0C190,453.8,200.8,443.8,194,436.8z"/>
<path class="st0" d="M101.3,505.5c-1.8-3.6-3.3-7.2-4.5-10.8c-0.3-0.9-0.5-2.1-0.8-3.2c-5.9-6-11.6-12.2-15.1-17
	c-2.9,1.7-6.2,6.4-10.4,7.2c-1.7,0.3-5.4,0.8-6.5,0.3c-1.1-0.5,0.3-2.8,1.4-4.3c2.1-2.7,5.1-6.2,9.5-9.6c-0.5-0.7-0.9-1.3-1.3-2
	c-0.3-0.1-0.5-0.1-0.9-0.2c-8.5-2.4-18.6-10.7-17.4-21.4c0.4-3.3,1.5-5.5,3.1-7.2c-1.3-3.1-2.5-6.3-3.9-9.8c-3.7,2.3-6.4,4.4-9.6,7
	c-1.1,0.9-4.1,1.4-5.5,0.1c-2.6-2.4-2.7-6.5,1-9.2c1.3-0.9,6.7-4.6,9.5-6.7c-4.4-6.1-8.3-11.9-11.6-15.4c0.3-8.5,1.5-16.7,3.6-24.5
	l-0.2-1.2c-3.1,2.7-7.4,5.7-8.7,6.6c-1.8,0.5-2.9-0.1-3.4-0.2c-1.7,19.7,0.3,39.6,5.9,58.6c9.7,32.4,36.8,63.2,73.4,74.7
	c1.7-2.3,3.6-4.5,5.6-6.5C110,509.1,105.6,507.4,101.3,505.5z"/>
<path class="st0" d="M147.4,370.5c0.1-3.5,0.5-6.6,2.1-9c4-5.6,13.7-8.3,21-11.9c-4.5-8.2-9.8-15.9-15.8-23
	c-7.2,0.6-14.3,1.7-21.4,3.3c-5.7,4.4-19.4,6.2-31.1,17.4c2.5,10.7,6.1,22.7,10.2,34.8C123.7,377.2,135.4,373.4,147.4,370.5z"/>
<path class="st0" d="M117.9,519.9c4.8,1.7,11.4,1.8,17,2.4c-3.6-2.1-8.1-5.3-12.4-8.1C120.7,515.8,119.3,518,117.9,519.9z"/>
<path class="st0" d="M238.6,434.1l-1.6,3.4c-6.9,14.9-1.4,20.1-3.8,36.3c-0.7,0.9-1.5,1.7-2.2,2.5c4.4,1.1,8.7,2.3,11.5,3.4
	c1.9-1.9,4.6-5.8,5.7-8.1c1.1-9.3,1.1-28.4,0.7-34C245.9,436.3,242.3,435.1,238.6,434.1z"/>
<path class="st0" d="M264.2,384.9c-5.7-29.4-16.3-39.8-20-44.5c-4.9-2.7-11.1-5.2-15.9-7c12.3,13.7,21,30.2,25.2,48.1
	c2.8,1.6,5.3,3.2,5.8,3.8c0.8,1,0.8,2.7-1.7,2.7c-0.8,0-1.8-0.3-2.9-0.7c0.9,4.7,1.4,9.5,1.7,14.3c-1.3,1.8-2.6,3.8-3.9,5.9
	c1.1,8.1,1.6,16.3,1.6,24.4c0,0,5.6,2.7,5.1,4.5c-0.5,1.7-3.6,3.5-5.1,3.1c0.2,3.1-0.5,18.7-1.3,24.7c2.2-4.4,6.3-15.5,7.5-20.1
	l1.8-6.8C263.7,431.5,269.3,411.4,264.2,384.9z"/>
<path class="st0" d="M214.1,492.7c-0.1,4.3-0.3,8.9-0.5,12.6c9.8-6.1,19.1-13.2,25.8-21.7c-3-0.8-8-1.6-12.9-2.2
	C222.7,485.5,218.5,489.2,214.1,492.7z"/>
<path class="st0" d="M241.9,427.1c2.4,0.8,4.7,1.7,7,2.7c-0.2-4.4-0.6-9.2-1.2-14.1C245.6,419.5,243.6,423.4,241.9,427.1z"/>
<path class="st0" d="M127.9,509.4c3.7,3.7,18.2,13.3,18.2,13.3c9.7,0.4,21.8-0.7,30.6-2.2c-4.8-5.5-16.8-22.5-20.4-28.2
	C146.9,496.2,135.2,503.3,127.9,509.4z"/>
<path class="st0" d="M199,491.5c-1.8-3.5-3-6.8-4-9.9c-10.9,1.4-22.6,4.2-30.3,7.4c6.5,10.3,13.9,20,22.1,29
	c4.9-1.6,17.4-7.2,19.9-8.9c0.2-3.7,0.3-7.6,0.4-11.4c-0.8,0.5-1.5,1.1-2.2,1.5C202.7,497.4,200.7,494.9,199,491.5z"/>
<path class="st0" d="M133.6,292.7c10.1,6.7,18.5,16.7,25.9,25c11.3-1,35,0.8,43.9,3.3c-1.5-1.8-3.4-3.6-3.9-4.6
	c-1.3-2.7,1.8-3.3,4.2-1.7l0,0c3.1,2,6.7,4.4,9.5,7.2c5.2,1.2,18.2,5.6,24.1,8.7C219.4,308.6,178.8,289.9,133.6,292.7z"/>
<polygon points="109,517 108.9,517 108.9,517 "/>
<path class="st1" d="M744.5,210.4C694.6,118,563.7,37,420.5,43.3c-33.9-1-53.8,3.3-73.8,7.2c-6-1.6-17.3,0.1-17.9,13.1
	c0,7,2.2,12.4,6.7,15.6c4.4,3.2,41.6,30.6,68.8,59.6c-13.1,1.4-27.3,3.8-41.9,6.8c-16.3-35.2-68.6-3.2-103.4-1.8
	c-4.1,0.2-7.9,0.7-12,1c-3.8-29.4-6.6-59.8-5.8-81.3c45-25.5,132.2-44.3,191.3-45.3l10.4-0.3c8.7-0.1,9.4-7,1.2-8.1
	C370.7,0,307,14.9,241.6,41.9C173.5,70.6,86.9,136.7,34.1,261.2c-12.4,34.7-61.8,200.3,26,342.4c71.3,115.3,163,170.1,275.2,185.8
	c112,15.6,172.8,2.1,243.6-29.4C744.6,686.5,871.1,410.5,744.5,210.4z M357.6,172.7c21.7-4.9,43.6-8.3,65.8-10.2
	c18.5,21.9,34.8,45.6,48.7,70.7c-22.4,10.9-52.3,19.2-64.4,36.5c-5,7.2-6.3,17.1-6.5,27.7c-36.9,8.8-73,20.8-107.9,35.8
	c-12.6-37.1-23.7-74-31.3-106.9C298,191.7,340.2,186.1,357.6,172.7z M541.6,614.6L541.6,614.6L541.6,614.6
	c-9.9,1.1-19.7,2.3-28.3,3.6c-21.4,3.4-49,10.5-74.7,20.1c-14.7-23.5-54.3-80.5-74.2-123.5c40.1-19.7,96.2-36.3,160.7-40.2
	c5.3,9.2,11.1,18.4,19.2,26.6C565.4,522.9,532.1,553.7,541.6,614.6z M302.2,360.3L302.2,360.3c31.1-14.8,64-27,99.1-35.8
	c-0.2,9.3-1.3,18.1-5.1,25.1c-5.5,10.2-2.9,39.8,3.7,49.4c21,30.6,55.9,13.6,82.1,24.6c12.1,5.1,20.1,13.4,26.8,23.4
	c-54.9,3.5-108.8,16.3-158.8,39.3C324.4,431.6,302.2,360.3,302.2,360.3z M325.3,497.7c-2,0.9-4,2.1-6,3.1
	c-29.9-8.5-60.1-15.7-90.6-21.7c-27.7-5.7-28.7-4.2-59.9,4.9c-4.5,1.3-8.7,2.4-12.9,3.7c-4.3-11.1-8.5-22.2-12.4-33.4
	c40-30.8,80.3-56.6,134.2-83.1C291.6,412.6,311.5,468,325.3,497.7z M346.7,623.7c8.2-21.3,14.5-37.1,16.9-52.6
	c15.8,26.7,34.7,55.7,49.4,78.4c-22.8,11.1-49.3,28.1-74.4,46.9C340.3,667.5,340.8,638.9,346.7,623.7z M495.2,216.3
	c-0.3,0.4-0.8,0.7-1.1,1.1c-11.7-20.3-24.5-39.9-38.3-58.8c28-1.7,62.5-0.2,93.9,3C521.4,171.8,509,196.6,495.2,216.3z M243.9,246.8
	c0.5-0.7,1.1-1.3,1.6-2c6.5,32.9,14.3,60.1,24.7,97.9c-39,17.2-108,59.8-138.5,82.7c-5.5-14-11.3-33.8-16.4-54.2
	c6.9-20.5,21.1-34.9,41.1-36.9C190.5,331,219.8,280.1,243.9,246.8z M93.3,197.1c36.6-51.2,86.2-101,131.5-125.8
	c-0.4,11.1,2.4,43.6,6.1,75c-15.9,1.6-31.6,3.6-47.1,5.9C147,183.4,117.4,222.2,97,266C93.8,236.6,92.1,212.1,93.3,197.1L93.3,197.1
	z M69.4,237.2c0,0,1.7,29.5,3.2,51c0,0-21.7,24.7-32.9,44.3C44.2,292.3,53.6,271.6,69.4,237.2z M282.8,748.1L282.8,748.1
	C282.7,748.1,282.7,748.1,282.8,748.1C170.1,712.8,86.7,617.9,56.9,518.4C39.6,460,33.5,398.9,38.8,338.2c1.5,0.3,5.2,2,10.6,0.5
	c3.8-2.6,17.1-12,26.6-20.3l0.5,3.7c-6.4,24.2-10.3,49.4-11.1,75.4c10.3,10.8,22.4,28.9,35.8,47.5c-8.6,6.4-25.2,17.8-29.1,20.6
	c-11.4,8.1-11.3,20.9-3.2,28.2c4.5,4,13.7,2.3,17.1-0.3c10-7.9,18.3-14.2,29.7-21.4c4.2,10.9,8.1,20.8,12,30.2
	c-4.9,5.2-8.4,12.1-9.5,22.2c-3.7,32.6,27.2,58.2,53.4,65.7c1,0.3,1.7,0.4,2.6,0.7c1.4,2.1,2.6,4.1,4.1,6.2
	c-13.5,10.5-22.8,21.3-29.2,29.6c-3.7,4.8-7.8,12-4.5,13.4c3.4,1.4,14.9,0,20-1c13-2.5,23-16.9,32-22.2c10.8,14.9,28.3,34,46.5,52.3
	c0.8,3.3,1.5,6.9,2.4,9.8c3.5,11.3,8.2,22.4,13.8,33.3c13.1,6.1,26.8,11.2,40.7,15.6C293.9,734.4,288.1,741.1,282.8,748.1
	C282.7,748.1,282.7,748.1,282.8,748.1z M310.3,756.8c4.3-5.7,8.7-12.7,14.1-17.5c13,8.6,27,18.5,38.1,24.9
	C345.3,762.3,325.2,761.9,310.3,756.8z M396.9,765.4c0,0-44.6-29.5-55.9-40.9c22.3-18.6,58.5-40.6,87.1-52.6
	c11.2,17.6,48.1,69.8,62.8,86.6C464.1,763.2,426.6,766.7,396.9,765.4z M583.5,723.4c-8,5.2-46.3,22.6-61.3,27.5
	c-25.2-27.7-47.9-57.5-67.9-89.1c23.5-9.9,59.7-18.6,93.1-22.8c3,9.5,7,19.6,12.4,30.4c5.3,10.7,11.4,18.4,18.1,23.8
	c2.4-1.5,4.6-3.2,6.9-4.7C584.6,700.1,584.2,712,583.5,723.4z M574.3,125.6L574.3,125.6c-7.5-4.8-16.9-3-13,5.4
	c1.5,3.3,7.2,8.7,11.9,14.2c-27.4-7.6-100.4-13.3-135.2-10.1c-22.7-25.5-48.5-56.4-79.6-77c139.1-8.7,264.1,48.9,319.3,116.5
	c-18.4-9.6-58.1-23.2-74.2-26.8C594.8,139,583.8,131.7,574.3,125.6z M604.8,711.9c0.6-11.3,1.1-25.7,1.5-38.8
	c13.6-10.5,26.3-22,38.1-34.5c15.2,1.7,30.4,4.3,39.7,6.7C663.5,671.3,635.1,693,604.8,711.9z M711.3,608.3
	c-3.3,7-11.9,19.1-17.6,24.9c-8.7-3.5-21.7-7.2-35.4-10.4c2.2-2.6,4.5-5.1,6.7-7.7c7.5-50-9.4-66,11.7-111.7l4.8-10.3
	c11.6,3.3,22.6,6.9,32.1,10.7C714.7,520.8,714.6,579.6,711.3,608.3z M691.5,471.4c5.5-11.3,11.5-23.4,18-35.3
	c1.7,15.2,2.9,30.1,3.6,43.5C706.1,476.5,698.9,473.8,691.5,471.4z M747.9,523.8c-3.8,14.3-16.5,48.2-23.2,61.9
	c2.5-18.5,4.8-66.3,4.1-76c4.4,1.4,14-4.1,15.5-9.5c1.6-5.4-15.7-13.8-15.7-13.8c0-25.1-1.5-50.2-4.8-75.1c4-6.4,8-12.6,12.1-18.2
	c-0.8-14.7-2.5-29.4-5.2-43.8c3.5,1.1,6.7,2.1,9,2.1c7.9,0.1,7.9-5.3,5.4-8.3c-1.6-2-9.1-6.6-17.9-11.7
	c-12.9-55.1-39.5-106-77.4-148.1c14.8,5.6,33.8,13.4,48.8,21.5c11.4,14.4,44.1,46.6,61.6,136.9c15.7,81.3-1.7,143.1-7,161.1
	L747.9,523.8z"/>
</svg>
