<?xml version="1.0" encoding="utf-8"?>
<!-- Generator: Adobe Illustrator 26.2.1, SVG Export Plug-In . SVG Version: 6.00 Build 0)  -->
<svg version="1.1" id="_x32_" xmlns="http://www.w3.org/2000/svg" xmlns:xlink="http://www.w3.org/1999/xlink" x="0px" y="0px"
	 viewBox="0 0 791 788.9" style="enable-background:new 0 0 791 788.9;" xml:space="preserve">
<style type="text/css">
	.st0{fill:#FFFFFF;}
</style>
<g>
	<polygon class="st0" points="435.3,380.4 370.4,442.8 333.5,406 311.8,427.8 370,486 456.5,402.6 	"/>
	<path class="st0" d="M387.9,273.9c-87,0-157.7,70.7-157.7,157.8s70.7,157.7,157.7,157.7s157.7-70.7,157.7-157.7
		S474.9,273.9,387.9,273.9z M456.6,518.4l-24.2,46l-48.1-19.6l-48.1,19.6l-24.4-46l-49.5-15.8l11-50.8l-27.7-44l41.1-31.9l7.1-51.5
		l51.9,2l38.6-34.9l38.6,34.9l52-2l7.1,51.5l41.1,31.9l-27.7,44l11,50.8L456.6,518.4z"/>
</g>
<g>
	<path class="st0" d="M395.4,5.1C180.4,5.1,6.1,179.4,6.1,394.5s174.3,389.4,389.4,389.4s389.4-174.3,389.4-389.4
		S610.5,5.1,395.4,5.1z M311.2,100.1v120c0,12.9-5,18-18,18h-120L311.2,100.1z M609.1,655.2c0,12.9-10.4,23.3-23.3,23.3H189.9
		c-12.9,0-23.3-10.4-23.3-23.3V264.7h142.7c15.7,0,28.6-12.8,28.6-28.6V93h247.9c12.9,0,23.3,10.4,23.3,23.3V655.2z"/>
</g>
</svg>
