<?xml version="1.0" encoding="utf-8"?>
<!-- Generator: Adobe Illustrator 26.2.1, SVG Export Plug-In . SVG Version: 6.00 Build 0)  -->
<svg version="1.1" id="_x32_" xmlns="http://www.w3.org/2000/svg" xmlns:xlink="http://www.w3.org/1999/xlink" x="0px" y="0px"
	 viewBox="0 0 791 788.9" style="enable-background:new 0 0 791 788.9;" xml:space="preserve">
<style type="text/css">
	.st0{fill:#FFFFFF;}
</style>
<g>
	<path class="st0" d="M397.3,4C182.3,4,8,178.3,8,393.4s174.3,389.4,389.4,389.4s389.4-174.3,389.4-389.4S612.4,4,397.3,4z
		 M313.1,99v120c0,12.9-5,18-18,18h-120L313.1,99z M611,654.1c0,12.9-10.4,23.3-23.3,23.3H191.8c-12.9,0-23.3-10.4-23.3-23.3V263.6
		h142.7c15.7,0,28.6-12.8,28.6-28.6V91.9h247.9c12.9,0,23.3,10.4,23.3,23.3V654.1z"/>
</g>
<g>
	<path class="st0" d="M226,411.8c0-48.1,36.9-82.5,86.6-82.5c27.6,0,50.6,10,65.6,28.3l-23.7,21.9c-10.7-12.3-24.2-18.7-40.1-18.7
		c-29.9,0-51.1,21-51.1,51.1c0,30.1,21.2,51.1,51.1,51.1c16,0,29.4-6.4,40.1-18.9l23.7,21.9c-15,18.5-38.1,28.5-65.9,28.5
		C262.9,494.3,226,459.8,226,411.8z"/>
	<path class="st0" d="M555.6,332l-69.1,159.5H450L381.2,332h39.9l48.5,114l49.2-114H555.6z"/>
</g>
</svg>
