<?xml version="1.0" encoding="utf-8"?>
<!-- Generator: Adobe Illustrator 26.2.1, SVG Export Plug-In . SVG Version: 6.00 Build 0)  -->
<svg version="1.1" id="Layer_1" xmlns="http://www.w3.org/2000/svg" xmlns:xlink="http://www.w3.org/1999/xlink" x="0px" y="0px"
	 viewBox="0 0 800 800" style="enable-background:new 0 0 800 800;" xml:space="preserve">
<style type="text/css">
	.st0{fill:#FFFFFF;}
</style>
<g>
	<polygon class="st0" points="522.1,275.4 364.7,426.9 275.3,337.6 222.5,390.5 363.7,531.7 574,329.3 522.1,275.4 	"/>
	<path class="st0" d="M407,17C195.5,17,24,188.5,24,400s171.5,383,383,383s383-171.5,383-383S618.5,17,407,17z M574.2,610.4
		l-58.9,111.7l-116.9-47.7l-116.9,47.7l-58.8-111.7l-120.2-38.5l26.7-123.4L62,341.7l99.8-77.3l17.1-125.1l126.1,4.9l93.5-84.8
		l93.5,84.8l126.2-4.9l17.1,125.1l99.8,77.3l-67.3,106.8l26.7,123.4L574.2,610.4z"/>
</g>
</svg>
