<?xml version="1.0" encoding="utf-8"?>
<!-- Generator: Adobe Illustrator 26.2.1, SVG Export Plug-In . SVG Version: 6.00 Build 0)  -->
<svg version="1.1" id="Layer_1" xmlns="http://www.w3.org/2000/svg" xmlns:xlink="http://www.w3.org/1999/xlink" x="0px" y="0px"
	 viewBox="0 0 800 800" style="enable-background:new 0 0 800 800;" xml:space="preserve">
<style type="text/css">
	.st0{fill-rule:evenodd;clip-rule:evenodd;fill:#FFFFFF;}
</style>
<desc>Created with Sketch.</desc>
<g id="Page-1">
	<g id="Dribbble-Light-Preview" transform="translate(-140.000000, -7559.000000)">
		<g id="icons" transform="translate(56.000000, 160.000000)">
			<path id="github-_x5B__x23_142_x5D_" class="st0" d="M483.9,7403.9c218.2,0,395.1,181.3,395.1,405c0,179-113.1,330.7-269.9,384.3
				c-20,4-27.2-8.7-27.2-19.5c0-13.3,0.5-57,0.5-111.2c0-37.7-12.6-62.4-26.9-75c88-10.1,180.4-44.2,180.4-199.9
				c0-44.2-15.3-80.3-40.7-108.7c4.1-10.3,17.7-51.5-3.9-107.3c0,0-33.1-10.9-108.5,41.6c-31.6-9-65.4-13.5-99-13.6
				c-33.6,0.2-67.4,4.6-98.9,13.6c-75.5-52.3-108.6-41.6-108.6-41.6c-21.4,55.8-7.9,97-3.9,107.3c-25.3,28.3-40.7,64.5-40.7,108.7
				c0,155.2,92.2,189.9,179.9,200.2c-11.3,10.1-21.5,27.9-25.1,54.1c-22.5,10.4-79.7,28.2-115-33.7c0,0-20.9-38.9-60.5-41.8
				c0,0-38.5-0.5-2.7,24.6c0,0,25.9,12.4,43.9,59.3c0,0,23.2,72.3,133.1,47.8c0.2,33.9,0.6,65.8,0.6,75.4c0,10.7-7.3,23.2-27,19.5
				c-157.1-53.2-270.3-205.1-270.3-384.1C88.9,7585.2,265.8,7403.9,483.9,7403.9"/>
		</g>
	</g>
</g>
</svg>
