<?xml version="1.0" encoding="utf-8"?>
<!-- Generator: Adobe Illustrator 26.2.1, SVG Export Plug-In . SVG Version: 6.00 Build 0)  -->
<svg version="1.1" id="Layer_1" xmlns="http://www.w3.org/2000/svg" xmlns:xlink="http://www.w3.org/1999/xlink" x="0px" y="0px"
	 viewBox="0 0 800 800" style="enable-background:new 0 0 800 800;" xml:space="preserve">
<style type="text/css">
	.st0{fill:#1275B1;}
	.st1{fill:#FFFFFF;}
</style>
<path class="st0" d="M398.9,2L398.9,2c219.8,0,397.9,178.2,397.9,397.9l0,0c0,219.8-178.2,397.9-397.9,397.9l0,0
	C179.2,797.9,1,619.7,1,399.9l0,0C1,180.2,179.2,2,398.9,2z"/>
<path class="st1" d="M302.8,220.6c0,26.6-23,48.1-51.4,48.1c-28.4,0-51.4-21.5-51.4-48.1s23-48.1,51.4-48.1
	C279.8,172.5,302.8,194.1,302.8,220.6z"/>
<path class="st1" d="M207,304.1h87.9v266.4H207V304.1z"/>
<path class="st1" d="M436.5,304.1h-87.9v266.4h87.9c0,0,0-83.9,0-136.3c0-31.5,10.7-63.1,53.6-63.1c48.5,0,48.2,41.2,47.9,73.1
	c-0.3,41.7,0.4,84.3,0.4,126.3h87.9V429.9c-0.7-89.8-24.1-131.1-101.1-131.1c-45.7,0-74,20.8-88.8,39.5V304.1z"/>
</svg>
