<?xml version="1.0" encoding="utf-8"?>
<!-- Generator: Adobe Illustrator 26.2.1, SVG Export Plug-In . SVG Version: 6.00 Build 0)  -->
<svg version="1.1" id="Layer_1" xmlns="http://www.w3.org/2000/svg" xmlns:xlink="http://www.w3.org/1999/xlink" x="0px" y="0px"
	 viewBox="0 0 800 800" style="enable-background:new 0 0 800 800;" xml:space="preserve">
<style type="text/css">
	.st0{fill:#FFFFFF;}
</style>
<g>
	<path class="st0" d="M398.9,2C179.2,2,1,180.2,1,399.9c0,219.8,178.2,398,397.9,397.9c219.7,0,397.9-178.1,397.9-397.9
		C796.8,180.2,618.7,2,398.9,2z M294.9,570.5H207V304.1h87.9V570.5z M251.4,268.7c-28.4,0-51.4-21.5-51.4-48.1
		c0-26.6,23-48.1,51.4-48.1c28.4,0,51.4,21.6,51.4,48.1C302.8,247.2,279.8,268.7,251.4,268.7z M626.3,570.5h-87.9
		c0-42-0.7-84.6-0.4-126.3c0.3-31.9,0.6-73.1-47.9-73.1c-42.9,0-53.6,31.6-53.6,63.1c0,52.4,0,136.3,0,136.3h-87.9V304.1h87.8h0.1
		h-0.1v34.2c14.8-18.7,43.1-39.5,88.8-39.5c77,0,100.4,41.3,101.1,131.1V570.5z"/>
</g>
</svg>
