<?xml version="1.0" encoding="utf-8"?>
<!-- Generator: Adobe Illustrator 26.2.1, SVG Export Plug-In . SVG Version: 6.00 Build 0)  -->
<svg version="1.1" id="_x32_" xmlns="http://www.w3.org/2000/svg" xmlns:xlink="http://www.w3.org/1999/xlink" x="0px" y="0px"
	 viewBox="0 0 800 800" style="enable-background:new 0 0 800 800;" xml:space="preserve">
<style type="text/css">
	.st0{fill:#FFFFFF;}
</style>
<g>
	<path class="st0" d="M552.3,136.5H247.7c-37.2,0-67.3,30.1-67.3,67.3v423.4c0,37.2,30.1,67.3,67.3,67.3h256v-59.9
		c0-31,25.1-56.1,56.1-56.1h59.9V203.8C619.6,166.6,589.5,136.5,552.3,136.5z M338.2,317.2c0-34.1,27.7-61.8,61.8-61.8
		s61.8,27.7,61.8,61.8v17.5c0,34.1-27.7,61.8-61.8,61.8s-61.8-27.7-61.8-61.8V317.2z M400,513.8H287.1c0-51.4,30.1-93.7,87.7-103.1
		c7.9,2.6,16.4,4.1,25.2,4.1c8.8,0,17.3-1.5,25.2-4.1c57.6,9.5,87.7,51.8,87.7,103.1H400z"/>
	<path class="st0" d="M399,4C180.8,4,4,180.8,4,399s176.8,395,395,395s395-176.8,395-395S617.2,4,399,4z M659.2,578.4v16.4
		l-11.6,11.6l-116,116L520,734h-16.4h-256c-58.9,0-106.9-47.9-106.9-106.9V203.8c0-58.9,48-106.9,106.9-106.9h304.6
		c58.9,0,106.9,48,106.9,106.9V578.4z"/>
</g>
</svg>
