<?xml version="1.0" encoding="utf-8"?>
<!-- Generator: Adobe Illustrator 26.2.1, SVG Export Plug-In . SVG Version: 6.00 Build 0)  -->
<svg version="1.1" id="_x32_" xmlns="http://www.w3.org/2000/svg" xmlns:xlink="http://www.w3.org/1999/xlink" x="0px" y="0px"
	 viewBox="0 0 791 788.9" style="enable-background:new 0 0 791 788.9;" xml:space="preserve">
<style type="text/css">
	.st0{fill:#FFFFFF;}
	.st1{fill:none;}
</style>
<path class="st0" d="M510,458.3c-11.8-0.7-40.2,1-68.5,6.4c-16.4-16.6-30.6-37.5-41.1-54.8c33.8-97.1,12.4-124.7-16.4-124.7
	c-22.6,0-33.8,23.9-31.3,50.3c1.3,13.2,12.5,41.1,26.3,67.6c-8.5,22.3-23.7,60-38.7,87.3c-17.6,5.4-32.7,11.3-43.5,16.3
	c-54,25.1-58.3,58.6-47.1,72.8c21.3,26.9,66.7,3.7,112.3-77.8c31.2-8.8,72.3-20.7,75.9-20.7c0.4,0,1,0.1,1.7,0.4
	c22.7,20.1,49.7,43,71.7,46.1c32,4.4,50.3-18.8,48.9-33.3C559.1,479.7,550.6,460.7,510,458.3z M308,546.2
	C294.8,562,273.5,577,266,572c-7.6-5-8.8-19.4,8.2-35.8c16.9-16.3,45.2-24.8,49.5-26.3c5-1.9,6.3,0,6.3,2.4
	C329.9,514.8,321.2,530.5,308,546.2z M365.7,335.4c-1.3-15.7,1.9-30.8,15.1-32.6c13.2-1.9,19.4,13.1,14.4,37.6s-7.5,40.8-10,42.7
	c-2.5,1.8-5-4.4-5.1-4.4C375.1,368.7,367,351.1,365.7,335.4z M370.8,482.9c6.9-11.3,24.4-57.1,24.4-57.1c3.8,6.9,33.3,42,33.3,42
	S383.3,477.9,370.8,482.9z M507.5,502.9c-18.8-2.4-50.8-25.1-50.8-25.1c-4.4-1.8,35-7.2,50.2-6.3c19.5,1.3,26.4,9.4,26.3,17.5
	C533.2,497.2,526.3,505.4,507.5,502.9z"/>
<g>
	<path class="st1" d="M510,458.3c-11.8-0.7-40.2,1-68.5,6.4c-16.4-16.6-30.6-37.5-41.1-54.8c33.8-97.1,12.4-124.7-16.4-124.7
		c-22.6,0-33.8,23.9-31.3,50.3c1.3,13.2,12.5,41.1,26.3,67.6c-8.5,22.3-23.7,60-38.7,87.3c-17.6,5.4-32.7,11.3-43.5,16.3
		c-54,25.1-58.3,58.6-47.1,72.8c21.3,26.9,66.7,3.7,112.3-77.8c31.2-8.8,72.3-20.7,75.9-20.7c0.4,0,1,0.1,1.7,0.4
		c22.7,20.1,49.7,43,71.7,46.1c32,4.4,50.3-18.8,48.9-33.3C559.1,479.7,550.6,460.7,510,458.3z"/>
	<path class="st0" d="M397.3,4C182.3,4,8,178.3,8,393.4s174.3,389.4,389.4,389.4s389.4-174.3,389.4-389.4S612.4,4,397.3,4z
		 M313.1,99v120c0,12.9-5,18-18,18H175.1L313.1,99z M611,654.1c0,12.9-10.4,23.3-23.3,23.3H191.8c-12.9,0-23.3-10.4-23.3-23.3V263.6
		h142.7c15.7,0,28.6-12.8,28.6-28.6V91.9h247.9c12.9,0,23.3,10.4,23.3,23.3V654.1z"/>
</g>
</svg>
