<?xml version="1.0" encoding="utf-8"?>
<!-- Generator: Adobe Illustrator 26.2.1, SVG Export Plug-In . SVG Version: 6.00 Build 0)  -->
<svg version="1.1" id="Layer_1" xmlns="http://www.w3.org/2000/svg" xmlns:xlink="http://www.w3.org/1999/xlink" x="0px" y="0px"
	 viewBox="0 0 800 800" style="enable-background:new 0 0 800 800;" xml:space="preserve">
<style type="text/css">
	.st0{fill:#E8EEEF;}
	.st1{fill:#10669B;}
</style>
<circle class="st0" cx="398.8" cy="400.6" r="394.8"/>
<path class="st1" d="M727.8,181.3l-11.7,3.8l-62.3,5.5l-17.9,28.2l-12.8-4.1l-50.6-45l-7.3-23.4l-10-25.1L523.7,93l-37.1-7.2
	l-0.8,16.9l36.4,35.5l17.8,20.9l-20,10.6l-16.2-4.8l-24.4-10.3V135l-31-13.2l-10.6,46.4l-32.3,7.2l3.2,25.9l42.3,8l7.3-41.3
	l34.7,5.2l16.1,9.4H535l17.3,34.9l47.1,47.6l-3.5,18.6l-37.9-4.8l-65.4,33l-47.1,56.4l-6.1,25.1h-17.1L391,379.4l-30.6,14.1
	l7.6,32.3l13.2-15.4h23.5l-1.7,28.2l19.4,5.6l19.9,22.4l31-9.4l36.2,5.6l42.3,11.3l20.9,2.5l35.5,40.3l68.6,40.3l-44.4,84.6
	l-46.8,21.7L568,712l-67.8,45.2l-7.2,26.1C704.7,731.5,834.4,518,782.6,306.3C771.7,261.8,753.2,219.4,727.8,181.3z"/>
<path class="st1" d="M445.5,607l-28.2-53.3l25.8-54.3l-26.4-7.9l-29.6-29.7l-65.7-14.1l-21.7-46.9v27.1h-9.6l-56.4-76.7v-63.1
	l-41.4-67.4l-65.8,11.7H82.1l-22.4-14.1l28.2-22.5l-28.2,6.5C-50,390.6,13.8,632.1,202.1,741.8c60.1,35,128.5,53.5,198,53.6
	c16.5-0.2,33.1-1.3,49.5-3.5l-4.1-47.8c0,0,18.2-70.5,18.2-73.3S445.5,607,445.5,607z"/>
<path class="st1" d="M152.2,133.1l70.5-9.9l32.3-17.6l36.4,10.4l58.1-3.2l20-31.3l28.9,4.8l70.5-6.6l19.4-21.4l28.2-18.2l38.6,5.8
	l14.1-2.1C406.1-33.5,211.4,10,96.9,149.3l0,0L152.2,133.1z M416.7,45.4l39.7-22.1l25.9,14.9l-37.5,28.2l-35.8,3.7l-16.1-10.4
	L416.7,45.4z M297.4,48.5l18.2,7.6l23-7.6l12.7,22l-53.8,14.1l-25.8-14.9C271.6,69.7,296.8,53.4,297.4,48.5z"/>
</svg>
